<svg width="20" height="22" viewBox="0 0 20 22" fill="none" xmlns="http://www.w3.org/2000/svg">
<path fill-rule="evenodd" clip-rule="evenodd" d="M10 2C8.34315 2 7 3.34315 7 5C7 6.65685 8.34315 8 10 8C11.6569 8 13 6.65685 13 5C13 3.34315 11.6569 2 10 2ZM5 5C5 2.23858 7.23858 0 10 0C12.7614 0 15 2.23858 15 5C15 7.76142 12.7614 10 10 10C7.23858 10 5 7.76142 5 5ZM3.77844 13.15C5.77388 12.2555 8.184 12 10 12C11.816 12 14.2261 12.2555 16.2216 13.15C18.2529 14.0606 20 15.722 20 18.5V19.5C20 20.8546 18.9048 22 17.5183 22H2.48169C1.09519 22 0 20.8546 0 19.5V18.5C0 15.722 1.74705 14.0606 3.77844 13.15ZM4.59656 14.975C3.00295 15.6894 2 16.778 2 18.5V19.5C2 19.7821 2.23155 20 2.48169 20H17.5183C17.7684 20 18 19.7821 18 19.5V18.5C18 16.778 16.9971 15.6894 15.4034 14.975C13.7739 14.2445 11.684 14 10 14C8.316 14 6.22612 14.2445 4.59656 14.975Z" fill="black"/>
</svg>
