<svg width="23" height="28" viewBox="0 0 23 28" fill="none" xmlns="http://www.w3.org/2000/svg">
<path d="M17.4603 8.12175V5.4145C17.4603 3.97849 16.7914 2.60129 15.6007 1.58587C14.41 0.570455 12.795 0 11.1111 0C9.4272 0 7.81225 0.570455 6.62154 1.58587C5.43084 2.60129 4.7619 3.97849 4.7619 5.4145V8.12175C3.49939 8.12294 2.28899 8.55116 1.39626 9.31246C0.503531 10.0738 0.00138647 11.106 0 12.1826V23.0116C0.00138647 24.0883 0.503531 25.1205 1.39626 25.8818C2.28899 26.6431 3.49939 27.0713 4.7619 27.0725H17.4603C18.7228 27.0713 19.9332 26.6431 20.826 25.8818C21.7187 25.1205 22.2208 24.0883 22.2222 23.0116V12.1826C22.2208 11.106 21.7187 10.0738 20.826 9.31246C19.9332 8.55116 18.7228 8.12294 17.4603 8.12175ZM7.93651 5.4145C7.93651 4.6965 8.27097 4.00789 8.86633 3.50019C9.46168 2.99248 10.2692 2.70725 11.1111 2.70725C11.9531 2.70725 12.7605 2.99248 13.3559 3.50019C13.9512 4.00789 14.2857 4.6965 14.2857 5.4145V8.12175H7.93651V5.4145ZM19.0476 23.0116C19.0472 23.3705 18.8799 23.7147 18.5823 23.9684C18.2847 24.2222 17.8812 24.3649 17.4603 24.3653H4.7619C4.34104 24.3649 3.93753 24.2222 3.63993 23.9684C3.34234 23.7147 3.17498 23.3705 3.1746 23.0116V12.1826C3.17498 11.8237 3.34234 11.4796 3.63993 11.2258C3.93753 10.972 4.34104 10.8293 4.7619 10.829H17.4603C17.8812 10.8293 18.2847 10.972 18.5823 11.2258C18.8799 11.4796 19.0472 11.8237 19.0476 12.1826V23.0116Z" fill="black"/>
<path d="M11.1112 13.5363C10.4132 13.5345 9.734 13.7295 9.17943 14.091C8.62486 14.4525 8.22599 14.9602 8.04489 15.5351C7.8638 16.11 7.91064 16.7199 8.17814 17.2697C8.44563 17.8195 8.91876 18.2785 9.5239 18.5753V21.658H12.6985V18.5753C13.3036 18.2785 13.7768 17.8195 14.0443 17.2697C14.3118 16.7199 14.3586 16.11 14.1775 15.5351C13.9964 14.9602 13.5975 14.4525 13.043 14.091C12.4884 13.7295 11.8092 13.5345 11.1112 13.5363Z" fill="black"/>
</svg>
