<svg width="309" height="88" viewBox="0 0 309 88" fill="none" xmlns="http://www.w3.org/2000/svg">
<path d="M88.9873 50.3432C88.9873 51.3425 88.9297 52.3995 88.8144 53.5142H63.5618C63.754 56.6275 64.811 59.0682 66.7328 60.8363C68.693 62.5659 71.0569 63.4307 73.8243 63.4307C76.092 63.4307 77.9754 62.9118 79.4744 61.874C81.0118 60.7978 82.088 59.3757 82.703 57.6076H88.3531C87.5075 60.6441 85.8163 63.1232 83.2796 65.045C80.7428 66.9284 77.591 67.8701 73.8243 67.8701C70.8262 67.8701 68.1357 67.1975 65.7527 65.8522C63.4081 64.5069 61.5631 62.6043 60.2179 60.1444C58.8726 57.6461 58.2 54.7634 58.2 51.4963C58.2 48.2292 58.8534 45.3657 60.1602 42.9058C61.467 40.4459 63.2927 38.5625 65.6374 37.2557C68.0204 35.9104 70.7494 35.2378 73.8243 35.2378C76.8223 35.2378 79.4744 35.8912 81.7805 37.198C84.0867 38.5049 85.8548 40.3114 87.0847 42.6175C88.3531 44.8853 88.9873 47.4605 88.9873 50.3432ZM83.5678 49.2478C83.5678 47.2491 83.1258 45.5387 82.2418 44.1165C81.3577 42.656 80.147 41.5605 78.6096 40.8302C77.1105 40.0615 75.4386 39.6772 73.5936 39.6772C70.9415 39.6772 68.6738 40.5228 66.7904 42.2139C64.9455 43.9051 63.8885 46.2497 63.6195 49.2478H83.5678Z" fill="#15213F"/>
<path d="M107.098 67.8701C104.676 67.8701 102.504 67.4665 100.583 66.6593C98.6608 65.8137 97.1425 64.6607 96.0279 63.2001C94.9132 61.7011 94.2983 59.9907 94.183 58.0689H99.6025C99.7562 59.6447 100.486 60.9324 101.793 61.9317C103.139 62.931 104.887 63.4307 107.04 63.4307C109.039 63.4307 110.614 62.9887 111.768 62.1047C112.921 61.2206 113.497 60.106 113.497 58.7607C113.497 57.377 112.882 56.3585 111.652 55.705C110.422 55.0132 108.52 54.3406 105.944 53.6871C103.6 53.0722 101.678 52.4572 100.179 51.8422C98.7184 51.1888 97.45 50.2471 96.3738 49.0171C95.336 47.7488 94.8172 46.096 94.8172 44.0589C94.8172 42.4446 95.2976 40.9648 96.2585 39.6195C97.2194 38.2742 98.5839 37.2172 100.352 36.4485C102.12 35.6414 104.138 35.2378 106.406 35.2378C109.903 35.2378 112.728 36.1218 114.881 37.8899C117.033 39.6579 118.186 42.0794 118.34 45.1543H113.094C112.978 43.5016 112.306 42.1755 111.076 41.1762C109.884 40.1768 108.27 39.6772 106.233 39.6772C104.349 39.6772 102.85 40.0807 101.736 40.8879C100.621 41.6951 100.064 42.7521 100.064 44.0589C100.064 45.0967 100.39 45.9615 101.044 46.6533C101.736 47.3067 102.581 47.8448 103.581 48.2676C104.618 48.652 106.041 49.094 107.847 49.5937C110.115 50.2087 111.96 50.8236 113.382 51.4386C114.804 52.0152 116.015 52.8992 117.014 54.0907C118.052 55.2822 118.59 56.8389 118.628 58.7607C118.628 60.4903 118.148 62.047 117.187 63.4307C116.226 64.8144 114.862 65.9098 113.094 66.717C111.364 67.4857 109.365 67.8701 107.098 67.8701ZM154.862 50.3432C154.862 51.3425 154.804 52.3995 154.689 53.5142H129.436C129.628 56.6275 130.685 59.0682 132.607 60.8363C134.568 62.5659 136.931 63.4307 139.699 63.4307C141.966 63.4307 143.85 62.9118 145.349 61.874C146.886 60.7978 147.963 59.3757 148.577 57.6076H154.228C153.382 60.6441 151.691 63.1232 149.154 65.045C146.617 66.9284 143.465 67.8701 139.699 67.8701C136.701 67.8701 134.01 67.1975 131.627 65.8522C129.283 64.5069 127.438 62.6043 126.092 60.1444C124.747 57.6461 124.074 54.7634 124.074 51.4963C124.074 48.2292 124.728 45.3657 126.035 42.9058C127.342 40.4459 129.167 38.5625 131.512 37.2557C133.895 35.9104 136.624 35.2378 139.699 35.2378C142.697 35.2378 145.349 35.8912 147.655 37.198C149.961 38.5049 151.729 40.3114 152.959 42.6175C154.228 44.8853 154.862 47.4605 154.862 50.3432ZM149.442 49.2478C149.442 47.2491 149 45.5387 148.116 44.1165C147.232 42.656 146.021 41.5605 144.484 40.8302C142.985 40.0615 141.313 39.6772 139.468 39.6772C136.816 39.6772 134.548 40.5228 132.665 42.2139C130.82 43.9051 129.763 46.2497 129.494 49.2478H149.442ZM177.181 35.1801C181.024 35.1801 184.138 36.3524 186.521 38.697C188.904 41.0032 190.095 44.3472 190.095 48.7289V67.3512H184.906V49.4784C184.906 46.3266 184.118 43.9244 182.543 42.2716C180.967 40.5804 178.814 39.7348 176.085 39.7348C173.318 39.7348 171.108 40.5996 169.455 42.3293C167.841 44.0589 167.034 46.5765 167.034 49.882V67.3512H161.787V35.7567H167.034V40.2537C168.071 38.6394 169.474 37.3902 171.242 36.5062C173.049 35.6221 175.028 35.1801 177.181 35.1801ZM203.912 40.8879C204.835 39.0814 206.141 37.6785 207.833 36.6791C209.562 35.6798 211.657 35.1801 214.117 35.1801V40.5996H212.733C206.852 40.5996 203.912 43.7898 203.912 50.1702V67.3512H198.665V35.7567H203.912V40.8879ZM233.953 67.8701C230.993 67.8701 228.302 67.1975 225.881 65.8522C223.498 64.5069 221.615 62.6043 220.231 60.1444C218.886 57.6461 218.213 54.7634 218.213 51.4963C218.213 48.2676 218.905 45.4234 220.289 42.9635C221.711 40.4651 223.632 38.5625 226.054 37.2557C228.475 35.9104 231.185 35.2378 234.183 35.2378C237.181 35.2378 239.891 35.9104 242.312 37.2557C244.734 38.5625 246.637 40.4459 248.02 42.9058C249.442 45.3657 250.153 48.2292 250.153 51.4963C250.153 54.7634 249.423 57.6461 247.963 60.1444C246.54 62.6043 244.599 64.5069 242.139 65.8522C239.68 67.1975 236.951 67.8701 233.953 67.8701ZM233.953 63.2577C235.836 63.2577 237.604 62.8157 239.257 61.9317C240.91 61.0477 242.236 59.7216 243.235 57.9536C244.273 56.1855 244.792 54.0331 244.792 51.4963C244.792 48.9595 244.292 46.8071 243.293 45.039C242.293 43.2709 240.986 41.9641 239.372 41.1185C237.758 40.2345 236.009 39.7925 234.126 39.7925C232.204 39.7925 230.436 40.2345 228.821 41.1185C227.245 41.9641 225.977 43.2709 225.016 45.039C224.055 46.8071 223.575 48.9595 223.575 51.4963C223.575 54.0715 224.036 56.2431 224.959 58.0112C225.919 59.7793 227.188 61.1053 228.764 61.9894C230.34 62.8349 232.069 63.2577 233.953 63.2577ZM262.298 24.6871V67.3512H257.052V24.6871H262.298ZM269.28 51.4386C269.28 48.21 269.933 45.3849 271.24 42.9635C272.547 40.5035 274.334 38.6009 276.602 37.2557C278.908 35.9104 281.464 35.2378 284.27 35.2378C287.037 35.2378 289.44 35.8335 291.477 37.0251C293.514 38.2166 295.032 39.7156 296.031 41.5221V35.7567H301.336V67.3512H296.031V61.4705C294.994 63.3154 293.437 64.8528 291.361 66.0828C289.324 67.2743 286.941 67.8701 284.212 67.8701C281.406 67.8701 278.87 67.1782 276.602 65.7945C274.334 64.4108 272.547 62.4698 271.24 59.9715C269.933 57.4731 269.28 54.6288 269.28 51.4386ZM296.031 51.4963C296.031 49.1132 295.551 47.0377 294.59 45.2696C293.629 43.5016 292.322 42.1563 290.67 41.2338C289.055 40.2729 287.268 39.7925 285.308 39.7925C283.347 39.7925 281.56 40.2537 279.946 41.1762C278.332 42.0986 277.044 43.4439 276.083 45.212C275.122 46.98 274.642 49.0556 274.642 51.4386C274.642 53.8601 275.122 55.9741 276.083 57.7806C277.044 59.5487 278.332 60.9131 279.946 61.874C281.56 62.7965 283.347 63.2577 285.308 63.2577C287.268 63.2577 289.055 62.7965 290.67 61.874C292.322 60.9131 293.629 59.5487 294.59 57.7806C295.551 55.9741 296.031 53.8793 296.031 51.4963Z" fill="#FFA44F"/>
<g filter="url(#filter0_d_314_283)">
<path d="M23.217 68.0668C8.79351 70.4039 4.54201 51.0195 15.8857 39.5006" stroke="#15213F" stroke-width="12.3545" stroke-linecap="round"/>
</g>
<path d="M17.0502 40.8527C30.888 34.6565 44.0323 17.2959 32.9665 6.2423" stroke="#FFA44F" stroke-width="12.3545" stroke-linecap="round"/>
<path d="M17.0502 40.8527C30.888 34.6565 44.0323 17.2959 32.9665 6.2423" stroke="url(#paint0_linear_314_283)" stroke-opacity="0.2" stroke-width="12.3545" stroke-linecap="round"/>
<path d="M17.4731 19.0299C-2.92892 28.5135 29.7163 47.2319 28.9985 66.6352" stroke="url(#paint1_linear_314_283)" stroke-width="12.3545" stroke-linecap="round"/>
<path d="M31.7431 69.0086C31.0135 72.2836 30.2055 79.3267 32.8101 81.2989" stroke="#FFA44F" stroke-width="12.3545" stroke-linecap="round"/>
<path d="M24.2833 67.8727C33.9834 67.8109 49.5814 65.5094 50.4737 44.8944C51.591 19.0785 30.9965 16.7131 18.2008 19.0429" stroke="#15213F" stroke-width="12.3545" stroke-linecap="round"/>
<defs>
<filter id="filter0_d_314_283" x="2.76566e-05" y="33.2583" width="32.6242" height="47.8322" filterUnits="userSpaceOnUse" color-interpolation-filters="sRGB">
<feFlood flood-opacity="0" result="BackgroundImageFix"/>
<feColorMatrix in="SourceAlpha" type="matrix" values="0 0 0 0 0 0 0 0 0 0 0 0 0 0 0 0 0 0 127 0" result="hardAlpha"/>
<feOffset dy="3.29453"/>
<feGaussianBlur stdDeviation="1.64726"/>
<feComposite in2="hardAlpha" operator="out"/>
<feColorMatrix type="matrix" values="0 0 0 0 0 0 0 0 0 0 0 0 0 0 0 0 0 0 0.25 0"/>
<feBlend mode="normal" in2="BackgroundImageFix" result="effect1_dropShadow_314_283"/>
<feBlend mode="normal" in="SourceGraphic" in2="effect1_dropShadow_314_283" result="shape"/>
</filter>
<linearGradient id="paint0_linear_314_283" x1="30.4179" y1="5.71203" x2="22.8551" y2="42.0605" gradientUnits="userSpaceOnUse">
<stop stop-color="#FFA44F"/>
<stop offset="1"/>
</linearGradient>
<linearGradient id="paint1_linear_314_283" x1="23.6729" y1="20.3199" x2="88.373" y2="21.5497" gradientUnits="userSpaceOnUse">
<stop stop-color="#FFA44F"/>
<stop offset="0.128623" stop-color="#B77B43"/>
</linearGradient>
</defs>
</svg>
