<svg width="29" height="20" viewBox="0 0 29 20" fill="none" xmlns="http://www.w3.org/2000/svg">
<path d="M28.8578 0.834752C28.8517 0.760068 28.8349 0.68634 28.8078 0.615271C28.7732 0.551514 28.7307 0.491214 28.6811 0.435432C28.656 0.391764 28.6266 0.350038 28.5933 0.310705C28.5933 0.310705 28.5811 0.303937 28.5756 0.299103C28.5126 0.249164 28.4433 0.205692 28.3689 0.169541C28.3225 0.137034 28.273 0.107928 28.2211 0.0825225C28.1722 0.0697117 28.1225 0.0593809 28.0722 0.0515825C27.9836 0.0245833 27.8914 0.00736752 27.7978 0.000338082C27.7911 -1.2649e-05 27.7844 -1.2649e-05 27.7778 0.000338082H1.11111C1.10445 -0.000112694 1.09777 -0.000112694 1.09111 0.000338082C0.99686 0.00587609 0.903847 0.022129 0.814445 0.048682C0.76479 0.0555878 0.715774 0.0656045 0.667778 0.0786549C0.614111 0.104694 0.563175 0.134783 0.515556 0.168574C0.442853 0.203994 0.375011 0.246486 0.313333 0.295235C0.313333 0.295235 0.3 0.302003 0.295556 0.306838C0.262525 0.346312 0.233172 0.388021 0.207778 0.431565C0.158203 0.487347 0.115732 0.547646 0.0811111 0.611403C0.0545616 0.682593 0.0377786 0.756265 0.0311112 0.830884C0.0166925 0.875556 0.00629063 0.921137 0 0.967214V15.4703C0 16.4961 0.468252 17.4798 1.30175 18.2051C2.13524 18.9304 3.2657 19.3378 4.44444 19.3378H24.4444C25.6232 19.3378 26.7536 18.9304 27.5871 18.2051C28.4206 17.4798 28.8889 16.4961 28.8889 15.4703V0.967214C28.8824 0.92244 28.872 0.878159 28.8578 0.834752ZM24.9411 1.93409L16.9789 8.34544C16.1478 8.9478 12.7389 8.94587 11.9533 8.37928L3.94778 1.93409H24.9411ZM24.4444 17.4041H4.44444C3.85507 17.4041 3.28984 17.2004 2.8731 16.8377C2.45635 16.4751 2.22222 15.9832 2.22222 15.4703V3.17846L10.4878 9.83153C11.6559 10.4856 13.0321 10.8007 14.4189 10.7317C15.8407 10.8005 17.2507 10.4733 18.4444 9.79769L26.6667 3.17846V15.4703C26.6667 15.9832 26.4325 16.4751 26.0158 16.8377C25.599 17.2004 25.0338 17.4041 24.4444 17.4041Z" fill="black"/>
</svg>
